<svg width="1780" height="541" viewBox="0 0 1780 541" fill="none" xmlns="http://www.w3.org/2000/svg">
<g clip-path="url(#clip0_92_83)">
<path d="M944.154 251.165C947.194 253.101 951.065 254.206 955.211 254.206C959.634 254.206 963.503 253.101 966.545 251.165C969.861 249.23 972.625 246.19 975.113 242.043C977.325 237.897 979.259 232.922 980.365 226.841C981.747 220.483 982.299 213.297 982.299 205.003C982.299 196.711 981.747 189.247 980.365 183.166C979.259 177.086 977.325 171.833 975.113 167.687C972.625 163.542 969.861 160.499 966.545 158.565C963.227 156.63 959.634 155.525 955.211 155.525C951.065 155.525 947.194 156.63 944.154 158.289C940.837 160.499 937.797 163.542 935.585 167.687C933.098 171.833 931.439 176.809 930.057 182.89C928.951 189.247 928.122 196.435 928.122 204.727C928.122 213.019 928.951 220.483 930.057 226.841C931.439 232.646 933.098 237.897 935.585 242.043C937.797 246.19 940.837 249.23 944.154 251.165ZM988.381 294.839C978.43 299.262 967.373 301.473 955.211 301.473C943.325 301.473 932.269 299.262 922.317 294.839C912.09 290.141 903.245 283.506 896.334 274.937C889.147 266.369 883.619 255.865 879.749 243.702C876.155 232.093 874.221 219.102 874.221 204.727C874.221 190.63 876.155 177.362 879.749 165.753C883.619 153.59 889.147 143.086 896.334 134.517C903.245 125.947 912.09 119.315 922.317 114.891C931.991 110.469 943.325 108.258 955.211 108.258C967.373 108.258 978.43 110.469 988.381 114.891C998.609 119.315 1007.18 125.947 1014.36 134.517C1021.55 143.086 1027.08 153.59 1030.95 165.753C1034.27 177.362 1036.2 190.63 1036.2 204.727C1036.2 219.102 1034.27 232.093 1030.95 243.702C1027.08 255.589 1021.83 265.815 1014.92 274.383L1014.36 274.937C1007.18 283.506 998.609 290.141 988.381 294.839ZM1168.05 225.182H1082.92C1077.94 225.182 1073.79 221.037 1073.79 215.783V184.271C1073.79 179.021 1077.94 174.874 1082.92 174.874H1168.05C1173.03 174.874 1177.17 179.021 1177.17 184.271V215.783C1177.17 221.037 1173.03 225.182 1168.05 225.182ZM1273.37 244.531H1292.71C1299.35 244.531 1305.71 243.426 1310.95 241.215C1316.21 239.002 1320.91 235.962 1324.78 232.093C1328.65 228.222 1331.69 223.523 1333.9 217.994C1335.83 212.743 1336.94 206.385 1336.94 199.751C1336.94 193.117 1335.83 187.037 1333.9 181.507C1331.69 176.257 1328.65 171.557 1324.78 167.687C1320.91 163.818 1316.49 160.777 1310.95 158.565C1305.71 156.63 1299.63 155.525 1292.71 155.525H1273.37V244.531ZM1225.82 103.006H1295.21C1309.58 103.006 1322.85 105.493 1334.73 109.917C1347.17 114.615 1357.95 121.526 1367.07 130.095C1375.91 138.939 1383.1 149.443 1387.81 161.606C1392.5 173.215 1394.99 185.931 1394.99 199.751C1394.99 213.573 1392.5 226.563 1387.81 238.173C1383.1 250.335 1375.91 260.839 1367.07 269.409C1357.95 278.254 1347.17 285.163 1334.73 289.863C1322.85 294.286 1309.58 296.774 1295.21 296.774H1225.82C1220.57 296.774 1216.42 292.627 1216.42 287.377V112.403C1216.42 107.153 1220.57 103.006 1225.82 103.006ZM1487.59 220.483H1522.7L1505.01 171.281L1487.59 220.483ZM1596.22 296.774H1554.21C1550.34 296.774 1546.74 294.286 1545.37 290.417L1537.07 266.093H1473.5L1465.21 290.141C1464.1 294.01 1460.5 296.774 1456.07 296.774H1415.73C1414.62 296.774 1413.51 296.774 1412.41 296.221C1407.43 294.286 1405.22 289.035 1406.87 284.058L1475.43 109.639C1476.81 105.77 1480.41 103.006 1484.55 103.006H1525.74C1529.61 103.006 1532.93 105.217 1534.58 108.811L1604.51 283.506C1605.07 284.611 1605.34 285.993 1605.34 287.653C1605.34 292.627 1601.19 296.774 1596.22 296.774ZM1728.9 103.006H1770.09C1771.75 103.006 1773.41 103.558 1774.79 104.387C1779.21 106.877 1780.87 112.681 1778.38 117.103L1713.7 225.734L1713.42 226.841V287.653C1713.42 292.627 1708.99 296.774 1704.02 296.774H1665.05C1659.79 296.774 1655.65 292.627 1655.65 287.653V226.841L1655.38 225.734L1591.53 117.657C1590.42 116.273 1589.86 114.338 1589.86 112.403C1589.86 107.153 1594.01 103.006 1599.26 103.006H1640.73C1644.05 103.006 1647.35 104.941 1649.02 108.258L1684.67 168.517L1720.06 108.811C1721.43 105.493 1725.03 103.006 1728.9 103.006ZM839.115 126.777L806.499 179.297C811.75 180.955 817.002 183.166 821.425 185.931C826.953 189.525 831.653 193.946 835.522 198.923C839.391 203.898 842.433 209.703 844.367 216.059C846.303 222.142 847.409 228.775 847.409 235.962C847.409 244.807 845.75 253.101 842.709 260.839L842.157 261.669C838.839 269.685 833.863 276.595 827.506 282.677C821.149 288.482 813.409 293.181 804.839 296.221C796.271 299.262 787.149 300.921 777.198 300.921C767.525 300.921 758.678 299.262 750.662 296.497C742.094 293.457 734.63 288.758 728.549 282.953C723.297 278.254 718.874 272.173 715.834 265.815C712.793 259.458 710.582 252.825 709.477 245.361C709.199 244.531 709.199 243.979 709.199 243.15C709.199 237.897 713.346 233.751 718.598 233.751H750.939C755.361 233.751 759.231 236.791 760.061 240.937C760.613 242.873 761.166 244.531 761.995 245.914C762.825 247.571 763.654 248.677 764.759 249.783C766.418 251.441 768.077 252.825 770.287 253.654C772.222 254.482 774.711 255.035 777.474 255.035C780.239 255.035 782.726 254.482 784.938 253.377C787.149 252.547 789.085 251.165 790.743 249.506C792.401 247.849 793.783 245.637 794.613 243.15C795.442 240.937 795.995 238.173 795.995 235.133C795.995 232.093 795.442 229.327 794.335 227.117C793.507 224.906 792.125 222.971 790.466 221.313C788.807 219.654 786.597 218.271 784.109 217.442C781.621 216.613 778.581 216.059 775.263 216.059H753.703C748.451 216.059 744.305 211.914 744.305 206.662V205.555C744.305 203.898 744.858 202.239 745.687 200.858L771.67 158.013H722.469C717.493 158.013 713.07 153.867 713.07 148.614V121.802C713.07 116.826 717.493 112.403 722.469 112.403H831.377C833.034 112.403 834.693 112.957 836.351 114.062C840.498 116.55 841.881 122.355 839.115 126.777Z" fill="white"/>
<path d="M1496.71 476.445C1491.18 478.103 1485.1 478.933 1478.47 478.933C1471.83 478.933 1465.47 478.103 1460.22 476.445C1454.42 474.786 1449.44 472.022 1445.58 468.706C1442.26 465.941 1439.77 462.623 1437.83 458.754C1435.9 455.161 1434.51 451.291 1433.97 446.869L1433.68 445.763C1433.68 442.998 1436.18 440.51 1439.22 440.51H1460.5C1462.71 440.51 1464.92 441.893 1465.47 444.381C1465.75 445.21 1466.3 446.039 1466.58 446.869C1467.14 447.698 1467.68 448.25 1468.24 448.803L1468.51 449.079C1469.9 450.185 1471.28 451.014 1472.66 451.567C1474.59 452.119 1476.54 452.397 1478.47 452.397C1480.12 452.397 1481.78 452.119 1483.44 451.567C1485.1 451.291 1486.48 450.462 1487.59 449.633C1488.7 448.803 1489.8 447.698 1490.35 446.315C1490.91 445.487 1491.18 444.103 1491.18 442.722C1491.18 439.405 1489.8 437.194 1487.31 435.811H1487.03C1483.45 433.601 1477.91 432.218 1471.83 430.835H1471.28C1463.54 428.901 1454.98 426.69 1448.06 421.991C1440.32 417.015 1434.79 409.275 1434.79 396.561C1434.79 391.309 1435.62 386.609 1437.28 382.463L1437.55 382.187C1439.5 377.765 1442.26 374.17 1445.84 371.13C1449.72 368.09 1454.42 365.602 1459.67 364.219C1464.92 362.837 1470.73 362.009 1477.37 362.009C1483.73 362.009 1489.52 362.837 1494.78 364.219C1500.03 365.879 1504.72 368.366 1508.32 371.683C1511.36 374.17 1513.84 377.211 1515.51 380.805C1517.16 384.122 1518.27 387.715 1519.1 391.862V392.967C1519.1 395.731 1516.62 398.218 1513.84 398.218H1493.39C1491.18 398.218 1488.96 396.837 1488.42 394.626C1488.14 393.797 1487.59 393.243 1487.31 392.414C1486.76 391.862 1486.2 391.309 1485.66 390.757C1484.83 389.927 1483.72 389.098 1482.34 388.822L1482.06 388.545C1480.4 387.993 1478.74 387.715 1477.08 387.715C1475.43 387.715 1473.76 387.993 1472.39 388.545C1471 388.822 1469.9 389.374 1468.79 389.927C1467.96 390.757 1467.14 391.585 1466.58 392.414C1466.03 393.243 1465.75 394.349 1465.75 395.731C1465.75 398.771 1467.41 400.707 1469.9 402.089C1473.5 404.023 1478.74 405.406 1484.83 406.787L1485.38 407.065C1493.11 408.999 1501.96 411.211 1509.43 416.186C1517.44 421.438 1523.24 429.178 1523.24 442.169C1523.24 447.698 1522.14 452.673 1520.2 457.097C1517.99 462.071 1514.95 465.941 1511.36 468.982C1507.22 472.299 1502.24 474.786 1496.71 476.445ZM1386.14 476.445H1365.97C1362.93 476.445 1360.71 473.957 1360.71 471.193V369.749C1360.71 366.985 1362.93 364.495 1365.97 364.495H1386.14C1389.18 364.495 1391.39 366.985 1391.39 369.749V471.193C1391.39 473.957 1389.18 476.445 1386.14 476.445ZM1292.44 476.445C1286.91 478.103 1280.83 478.933 1274.19 478.933C1267.28 478.933 1261.2 478.103 1255.67 476.445C1250.15 474.786 1245.45 472.022 1241.3 468.706C1237.98 465.941 1235.5 462.623 1233.28 458.754C1231.63 455.161 1230.25 451.291 1229.7 446.869L1229.42 445.763C1229.42 442.998 1231.9 440.51 1234.67 440.51H1256.23C1258.45 440.51 1260.38 441.893 1261.2 444.381C1261.48 445.21 1261.75 445.763 1262.31 446.593V446.869C1262.86 447.698 1263.42 448.25 1263.97 448.803L1264.24 449.079C1265.35 450.185 1267 451.014 1268.39 451.567C1270.04 452.119 1271.98 452.397 1273.92 452.397C1275.86 452.397 1277.51 452.119 1279.17 451.567C1280.83 451.291 1282.2 450.462 1283.31 449.633C1284.42 448.803 1285.26 447.698 1285.8 446.593L1286.08 446.315C1286.63 445.21 1286.91 444.103 1286.91 442.722C1286.91 435.535 1278.34 433.325 1267.57 430.835H1267C1259.27 428.901 1250.7 426.69 1243.79 421.991C1236.04 417.015 1230.52 409.275 1230.52 396.561C1230.52 391.309 1231.35 386.609 1233 382.463L1233.28 382.187C1235.22 377.765 1237.98 374.17 1241.58 371.13C1245.44 368.09 1250.15 365.602 1255.39 364.219C1260.64 362.837 1266.46 362.009 1273.08 362.009C1279.44 362.009 1285.26 362.837 1290.5 364.219C1295.75 365.879 1300.46 368.366 1304.04 371.683C1307.08 374.17 1309.3 377.211 1311.23 380.805C1312.9 384.122 1314 387.715 1314.55 391.862L1314.83 392.967C1314.83 395.731 1312.34 398.218 1309.58 398.218H1289.12C1286.91 398.218 1284.7 396.837 1284.15 394.626C1283.87 393.797 1283.31 393.243 1283.04 392.414C1282.48 391.862 1281.94 391.309 1281.38 390.757C1280.55 389.927 1279.44 389.098 1278.06 388.822L1277.79 388.545C1276.12 387.993 1274.47 387.715 1272.54 387.715C1271.15 387.715 1269.5 387.993 1268.11 388.545C1266.72 388.822 1265.63 389.374 1264.52 389.927C1263.68 390.757 1262.86 391.585 1262.31 392.414C1261.75 393.243 1261.48 394.349 1261.48 395.731C1261.48 398.771 1263.14 400.707 1265.63 402.089C1269.22 404.023 1274.47 405.406 1280.27 406.787L1280.83 407.065C1288.57 408.999 1297.68 411.211 1304.87 416.186C1312.9 421.438 1318.7 429.178 1318.7 442.169C1318.7 447.698 1317.87 452.673 1315.94 457.097C1313.72 462.071 1310.68 465.941 1307.08 468.982C1302.94 472.299 1297.96 474.786 1292.44 476.445ZM1166.39 476.445C1160.86 478.103 1154.78 478.933 1148.15 478.933C1141.24 478.933 1135.16 478.103 1129.63 476.445C1124.1 474.786 1119.12 472.022 1115.26 468.706C1111.94 465.941 1109.45 462.623 1107.24 458.754C1105.58 455.161 1104.2 451.291 1103.64 446.869L1103.37 445.763C1103.37 442.998 1105.86 440.51 1108.62 440.51H1130.18C1132.39 440.51 1134.33 441.893 1135.16 444.381C1135.43 445.21 1135.71 446.039 1136.26 446.869C1136.82 447.698 1137.37 448.25 1137.92 448.803L1138.2 449.079C1139.3 450.185 1140.96 451.014 1142.34 451.567C1144 452.119 1145.94 452.397 1147.87 452.397C1149.81 452.397 1151.47 452.119 1153.12 451.567C1154.78 451.291 1156.17 450.462 1157.27 449.633C1158.38 448.803 1159.48 447.698 1160.03 446.315C1160.59 445.487 1160.86 444.103 1160.86 442.722C1160.86 435.535 1152.3 433.325 1141.51 430.835H1140.96C1133.22 428.901 1124.65 426.69 1117.74 421.991C1110 417.015 1104.47 409.275 1104.47 396.561C1104.47 391.309 1105.3 386.609 1106.96 382.463L1107.24 382.187C1109.17 377.765 1111.94 374.17 1115.53 371.13C1119.4 368.09 1124.1 365.602 1129.35 364.219C1134.6 362.837 1140.41 362.009 1147.04 362.009C1153.4 362.009 1159.2 362.837 1164.46 364.219C1169.71 365.879 1174.41 368.366 1178 371.683C1181.04 374.17 1183.25 377.211 1185.19 380.805C1186.84 384.122 1187.95 387.715 1188.51 391.862L1188.78 392.967C1188.78 395.731 1186.3 398.218 1183.53 398.218H1163.08C1160.86 398.218 1158.65 396.837 1158.1 394.626C1157.82 393.797 1157.27 393.243 1156.99 392.414C1156.44 391.862 1155.89 391.309 1155.34 390.757C1154.51 389.927 1153.4 389.098 1152.02 388.822L1151.74 388.545C1150.08 387.993 1148.42 387.715 1146.49 387.715C1145.11 387.715 1143.45 387.993 1142.07 388.545C1140.69 388.822 1139.58 389.374 1138.47 389.927C1137.64 390.757 1136.82 391.585 1136.26 392.414C1135.71 393.243 1135.43 394.349 1135.43 395.731C1135.43 398.771 1137.09 400.707 1139.58 402.089C1143.17 404.023 1148.42 405.406 1154.23 406.787L1154.78 407.065C1162.52 408.999 1171.64 411.211 1178.83 416.186C1186.85 421.438 1192.66 429.178 1192.66 442.169C1192.66 447.698 1191.82 452.673 1189.88 457.097C1187.67 462.071 1184.64 465.941 1181.04 468.982C1176.9 472.299 1171.92 474.786 1166.39 476.445ZM1016.85 403.747L1005.52 433.049H1028.74L1016.85 403.747ZM1068.82 476.445H1047.53C1045.6 476.445 1043.66 475.062 1042.83 472.851L1037.03 457.926H996.672L991.42 472.575C990.592 474.786 988.657 476.445 986.168 476.445H965.714C964.885 476.445 964.332 476.169 963.778 475.891C961.014 474.786 959.633 471.746 960.738 469.258L1000.27 368.09C1001.1 366.155 1003.03 364.495 1005.52 364.495H1028.18C1030.4 364.495 1032.33 365.879 1033.16 367.814L1073.52 468.706C1073.79 469.535 1074.07 470.363 1074.07 471.193C1074.07 473.957 1071.58 476.445 1068.82 476.445ZM897.162 402.366C897.716 400.983 897.992 399.602 897.992 398.218C897.992 396.561 897.716 395.178 897.162 394.073C896.886 392.967 896.057 391.862 895.228 390.757C894.122 389.927 893.016 389.374 891.91 388.822C890.528 388.545 889.146 388.269 887.488 388.269H871.456V408.17H887.488C889.146 408.17 890.528 407.893 891.634 407.341H891.91C893.016 407.065 894.122 406.235 895.228 405.406C896.057 404.577 896.886 403.471 897.162 402.366ZM871.456 451.291H888.593C890.252 451.291 891.91 451.014 893.293 450.462C894.674 450.185 895.78 449.357 896.609 448.527C897.716 447.422 898.545 446.315 899.097 445.21C899.65 443.827 899.926 442.445 899.926 440.787C899.926 439.405 899.65 438.023 899.097 436.641C898.545 435.535 897.716 434.43 896.609 433.325C895.78 432.494 894.674 431.665 893.293 431.389C891.91 430.835 890.252 430.559 888.593 430.559H871.456V451.291ZM918.722 412.593C917.064 413.975 915.406 415.633 913.47 416.739L912.641 417.291L912.918 417.567C915.682 418.674 917.893 420.331 920.105 421.991C922.316 423.926 923.974 426.137 925.633 428.349C927.016 430.835 928.121 433.325 928.95 436.089C929.502 438.853 930.056 441.617 930.056 444.658C930.056 449.079 928.95 453.226 927.292 457.097C925.633 460.966 922.869 464.282 919.553 467.323C916.512 470.087 912.365 472.299 907.942 473.957C903.52 475.615 898.821 476.445 893.845 476.445H847.684C844.642 476.445 842.432 473.957 842.432 471.193V369.749C842.432 366.985 844.642 364.495 847.684 364.495H892.74C897.438 364.495 901.861 365.326 905.732 366.431H906.008C910.43 367.814 914.301 370.025 917.341 372.511C920.381 375.275 922.869 378.318 924.528 381.634C926.186 385.227 927.016 389.098 927.016 392.967C927.016 395.454 926.74 397.942 926.186 400.154C925.357 402.366 924.528 404.577 923.145 406.787C922.04 408.722 920.381 410.935 918.722 412.593ZM1560 364.495H1641.27C1644.04 364.495 1646.52 366.985 1646.52 369.749V386.609C1646.52 389.65 1644.04 391.862 1641.27 391.862H1615.84V471.193C1615.84 473.957 1613.63 476.445 1610.59 476.445H1590.7C1587.66 476.445 1585.44 473.957 1585.44 471.193V391.862H1560C1557.24 391.862 1554.76 389.65 1554.76 386.609V369.749C1554.76 366.985 1557.24 364.495 1560 364.495Z" fill="white"/>
<mask id="mask0_92_83" style="mask-type:luminance" maskUnits="userSpaceOnUse" x="0" y="0" width="563" height="541">
<path d="M207.05 162.659L253.369 20.4419C255.929 12.7619 261.282 6.70995 268.032 3.21795C274.782 -0.272715 282.696 -0.971376 290.377 1.35662C295.032 2.98596 298.989 5.31394 302.248 8.57127C305.274 11.5979 307.601 15.0899 308.998 19.0472L355.55 162.193C359.274 174.297 370.446 182.909 383.481 182.909H533.145C541.292 182.909 548.74 186.167 554.093 191.521C559.446 196.874 562.705 204.323 562.705 212.469C562.705 217.357 561.541 222.011 559.214 225.969C557.118 229.926 554.326 233.418 550.834 236.211L430.265 323.727C419.558 330.942 414.67 344.443 418.86 357.011L464.946 499.227C467.506 507.142 466.576 515.055 463.317 521.806C459.826 528.555 453.774 533.909 446.093 536.47C441.904 537.866 437.481 538.331 433.525 537.866L432.36 537.633C428.404 536.935 424.446 535.539 420.956 533.443L298.524 444.297C288.516 437.082 274.55 436.849 263.842 444.53L162.36 538.563C157.24 543.918 148.628 539.727 153.981 531.582L163.757 517.151L173.997 502.021L252.438 385.875C258.722 376.797 264.541 376.099 274.317 376.563C282.23 376.797 283.394 373.77 287.584 365.857L300.153 342.349L304.576 344.675C308.066 346.306 309.696 349.563 307.834 353.287C301.55 365.159 320.636 375.167 326.92 363.297L336.929 344.675C343.214 332.806 323.894 323.03 317.61 334.899C315.748 338.391 311.792 338.857 308.3 337.227L303.877 335.133L332.041 282.297L335.765 284.159C339.257 286.021 341.118 289.279 339.024 293.003C332.74 304.642 352.058 314.65 358.342 302.779L368.118 284.159C374.404 272.287 355.317 262.511 349.033 274.382C346.938 277.874 342.981 278.573 339.722 276.711L335.765 274.849L348.8 250.175C353.921 240.866 353.454 238.073 345.076 232.021L332.972 223.175L320.869 214.563C312.489 208.279 309.696 208.745 302.248 216.426L282.929 236.442L279.904 233.418C277.342 230.623 276.412 226.667 279.438 223.874C288.748 214.099 273.386 198.969 264.076 208.511L249.412 223.642C240.101 233.418 255.464 248.547 264.774 238.77C267.566 235.978 271.292 236.442 274.084 239.235L277.11 242.494L235.446 285.323L231.954 281.83C229.394 279.038 228.696 275.081 231.489 272.287C240.8 262.511 225.438 247.382 216.128 256.926L201.464 272.055C192.153 281.83 207.516 296.961 216.826 287.418C219.852 284.391 223.576 285.09 226.136 287.65L229.628 291.374L211.24 310.461C204.954 316.745 202.628 319.073 205.188 326.287C208.678 335.366 209.842 341.185 203.093 350.263L116.74 460.59L94.1623 489.451C88.3423 497.133 81.593 490.151 85.0837 483.633L143.972 357.245C147.696 345.375 143.74 331.875 133.265 324.194L12.2304 236.211C5.47968 231.554 1.52368 224.339 0.359681 216.891C-0.804319 209.675 0.825018 201.53 5.71302 195.011C8.73968 190.823 12.6957 187.563 16.8864 185.702C20.8424 183.839 25.265 182.675 29.4543 182.675L32.713 182.909H179.118C191.454 182.909 203.093 174.994 207.05 162.659Z" fill="white"/>
</mask>
<g mask="url(#mask0_92_83)">
<path d="M207.05 162.659L253.369 20.4419C255.929 12.7619 261.282 6.70995 268.032 3.21795C274.782 -0.272715 282.696 -0.971376 290.377 1.35662C295.032 2.98596 298.989 5.31394 302.248 8.57127C305.274 11.5979 307.601 15.0899 308.998 19.0472L355.55 162.193C359.274 174.297 370.446 182.909 383.481 182.909H533.145C541.292 182.909 548.74 186.167 554.093 191.521C559.446 196.874 562.705 204.323 562.705 212.469C562.705 217.357 561.541 222.011 559.214 225.969C557.118 229.926 554.326 233.418 550.834 236.211L430.265 323.727C419.558 330.942 414.67 344.443 418.86 357.011L464.946 499.227C467.506 507.142 466.576 515.055 463.317 521.806C459.826 528.555 453.774 533.909 446.093 536.47C441.904 537.866 437.481 538.331 433.525 537.866L432.36 537.633C428.404 536.935 424.446 535.539 420.956 533.443L298.524 444.297C288.516 437.082 274.55 436.849 263.842 444.53L162.36 538.563C157.24 543.918 148.628 539.727 153.981 531.582L163.757 517.151L173.997 502.021L252.438 385.875C258.722 376.797 264.541 376.099 274.317 376.563C282.23 376.797 283.394 373.77 287.584 365.857L300.153 342.349L304.576 344.675C308.066 346.306 309.696 349.563 307.834 353.287C301.55 365.159 320.636 375.167 326.92 363.297L336.929 344.675C343.214 332.806 323.894 323.03 317.61 334.899C315.748 338.391 311.792 338.857 308.3 337.227L303.877 335.133L332.041 282.297L335.765 284.159C339.257 286.021 341.118 289.279 339.024 293.003C332.74 304.642 352.058 314.65 358.342 302.779L368.118 284.159C374.404 272.287 355.317 262.511 349.033 274.382C346.938 277.874 342.981 278.573 339.722 276.711L335.765 274.849L348.8 250.175C353.921 240.866 353.454 238.073 345.076 232.021L332.972 223.175L320.869 214.563C312.489 208.279 309.696 208.745 302.248 216.426L282.929 236.442L279.904 233.418C277.342 230.623 276.412 226.667 279.438 223.874C288.748 214.099 273.386 198.969 264.076 208.511L249.412 223.642C240.101 233.418 255.464 248.547 264.774 238.77C267.566 235.978 271.292 236.442 274.084 239.235L277.11 242.494L235.446 285.323L231.954 281.83C229.394 279.038 228.696 275.081 231.489 272.287C240.8 262.511 225.438 247.382 216.128 256.926L201.464 272.055C192.153 281.83 207.516 296.961 216.826 287.418C219.852 284.391 223.576 285.09 226.136 287.65L229.628 291.374L211.24 310.461C204.954 316.745 202.628 319.073 205.188 326.287C208.678 335.366 209.842 341.185 203.093 350.263L116.74 460.59L94.1623 489.451C88.3423 497.133 81.593 490.151 85.0837 483.633L143.972 357.245C147.696 345.375 143.74 331.875 133.265 324.194L12.2304 236.211C5.47968 231.554 1.52368 224.339 0.359681 216.891C-0.804319 209.675 0.825018 201.53 5.71302 195.011C8.73968 190.823 12.6957 187.563 16.8864 185.702C20.8424 183.839 25.265 182.675 29.4543 182.675L32.713 182.909H179.118C191.454 182.909 203.093 174.994 207.05 162.659Z" fill="#97CFED"/>
</g>
</g>
<defs>
<clipPath id="clip0_92_83">
<rect width="1780" height="541" fill="white"/>
</clipPath>
</defs>
</svg>
